
        <svg xmlns="http://www.w3.org/2000/svg" xmlns:xlink="http://www.w3.org/1999/xlink" version="1.1" width="3206.896551724138" 
        height="920.1651641969646" viewBox="0 0 3206.896551724138 920.1651641969646">
			
			<g transform="scale(10.344827586206897) translate(10, 10)">
				<defs id="SvgjsDefs1016"></defs><g id="SvgjsG1017" featureKey="symbolFeature-0" transform="matrix(0.9057736872854412,0,0,0.9057736872854412,-10.288683500458957,-10.814032169979464)" fill="#7ac7c4"><g xmlns="http://www.w3.org/2000/svg"><polygon points="78.268,32.181 57.521,32.181 47.148,50.146 57.521,68.112 78.268,68.112 88.641,50.146  "></polygon><polygon points="21.732,52.129 11.359,70.095 21.732,88.061 42.478,88.061 52.851,70.095 42.478,52.129  "></polygon><polygon points="42.478,47.871 52.851,29.905 42.478,11.939 21.732,11.939 11.359,29.905 21.732,47.871  "></polygon></g></g><g id="SvgjsG1018" featureKey="nameFeature-0" transform="matrix(1.505570479828225,0,0,1.505570479828225,85.42306723457905,-7.959047660508745)" fill="#7ac7c4"><path d="M3.04 37.8 l0 -24.8 c0 -1.32 1.04 -2.4 2.4 -2.4 s2.44 1.08 2.44 2.4 l0 15.6 l9.08 -8.92 c0.64 -0.64 1.24 -1.04 2.08 -1.04 c1.28 0 2.12 1.04 2.12 2.2 c0 0.8 -0.4 1.4 -1.08 2.04 l-5.6 5.16 l6.4 8.36 c0.44 0.6 0.64 1.04 0.64 1.6 c0 1.32 -1.04 2.2 -2.28 2.2 c-0.96 0 -1.52 -0.32 -2.12 -1.08 l-6.04 -8.04 l-3.2 3.04 l0 3.68 c0 1.36 -1.08 2.4 -2.44 2.4 c-1.32 0 -2.4 -1.04 -2.4 -2.4 z M32.32 40.44 c-3.96 0 -7.48 -2.28 -7.48 -6.52 l0 -0.08 c0 -4.56 3.56 -6.8 8.72 -6.8 c2.36 0 4.04 0.36 5.68 0.88 l0 -0.52 c0 -3 -1.84 -4.6 -5.24 -4.6 c-1.84 0 -3.36 0.32 -4.68 0.84 c-0.28 0.08 -0.52 0.12 -0.76 0.12 c-1.12 0 -2.04 -0.88 -2.04 -2 c0 -0.88 0.6 -1.64 1.32 -1.92 c2 -0.76 4.04 -1.24 6.8 -1.24 c3.16 0 5.52 0.84 7 2.36 c1.56 1.52 2.28 3.76 2.28 6.52 l0 10.4 c0 1.32 -1.04 2.32 -2.36 2.32 c-1.4 0 -2.36 -0.96 -2.36 -2.04 l0 -0.8 c-1.44 1.72 -3.64 3.08 -6.88 3.08 z M33.68 36.92 c3.2 0 5.64 -1.84 5.64 -4.52 l0 -1.44 c-1.24 -0.48 -2.88 -0.84 -4.8 -0.84 c-3.12 0 -4.96 1.32 -4.96 3.52 l0 0.08 c0 2.04 1.8 3.2 4.12 3.2 z M68.48 21.08 l0 16.72 c0 1.32 -1.08 2.4 -2.44 2.4 c-1.32 0 -2.44 -1.04 -2.44 -2.4 l0 -1.08 c-1.36 2 -3.32 3.72 -6.6 3.72 c-4.76 0 -7.52 -3.2 -7.52 -8.12 l0 -11.24 c0 -1.36 1.08 -2.44 2.4 -2.44 c1.36 0 2.44 1.08 2.44 2.44 l0 9.8 c0 3.28 1.64 5.12 4.52 5.12 c2.8 0 4.76 -1.92 4.76 -5.2 l0 -9.72 c0 -1.36 1.08 -2.44 2.44 -2.44 c1.32 0 2.44 1.08 2.44 2.44 z M81.60000000000001 40.36 c-3.56 0 -6.08 -1.56 -6.08 -6.2 l0 -11.12 l-0.8 0 c-1.16 0 -2.08 -0.92 -2.08 -2.08 s0.92 -2.08 2.08 -2.08 l0.8 0 l0 -3.6 c0 -1.32 1.08 -2.4 2.44 -2.4 c1.32 0 2.4 1.08 2.4 2.4 l0 3.6 l3.8 0 c1.16 0 2.12 0.92 2.12 2.08 s-0.96 2.08 -2.12 2.08 l-3.8 0 l0 10.36 c0 1.88 0.96 2.64 2.6 2.64 c0.56 0 1.04 -0.12 1.2 -0.12 c1.08 0 2.04 0.88 2.04 2 c0 0.88 -0.6 1.6 -1.28 1.88 c-1.04 0.36 -2.04 0.56 -3.32 0.56 z M94.6 27.96 l10.84 0 c-0.32 -3.12 -2.16 -5.56 -5.36 -5.56 c-2.96 0 -5.04 2.28 -5.48 5.56 z M108.24000000000001 37.68 c-1.92 1.72 -4.32 2.8 -7.6 2.8 c-6.12 0 -10.84 -4.44 -10.84 -10.96 l0 -0.08 c0 -6.04 4.28 -11 10.32 -11 c6.72 0 10.04 5.52 10.04 10.4 c0 1.36 -1.04 2.32 -2.28 2.32 l-13.24 0 c0.52 3.44 2.96 5.36 6.08 5.36 c2.04 0 3.64 -0.72 5 -1.84 c0.36 -0.28 0.68 -0.44 1.24 -0.44 c1.08 0 1.92 0.84 1.92 1.96 c0 0.6 -0.28 1.12 -0.64 1.48 z M135.88 21.08 l0 23.12 c0 1.36 -1.08 2.4 -2.4 2.4 c-1.36 0 -2.44 -1.04 -2.44 -2.4 l0 -7.72 c-1.56 2.2 -3.76 3.96 -7.2 3.96 c-4.96 0 -9.8 -3.96 -9.8 -10.96 l0 -0.08 c0 -7 4.76 -10.96 9.8 -10.96 c3.48 0 5.68 1.72 7.2 3.72 l0 -1.12 c0 -1.32 1.08 -2.4 2.4 -2.4 c1.36 0 2.44 1.08 2.44 2.44 z M125 22.64 c-3.32 0 -6.08 2.56 -6.08 6.76 l0 0.08 c0 4.08 2.8 6.76 6.08 6.76 c3.24 0 6.12 -2.72 6.12 -6.76 l0 -0.08 c0 -4.08 -2.88 -6.76 -6.12 -6.76 z"></path></g>
			</g>
		</svg>
	